#!OML:ASF H:\BabyWalks\Project 1\Capture day 1\Session 1\baby.ASF
:FULLY-SPECIFIED
:DEGREES
822
root 36.0979 17.4537 0.678667 188.42 81.9584 187.64
lowerback 18.5226 -0.462833 1.10972
upperback 8.18895 0.223962 1.34277
thorax -1.59325 0.364392 0.737721
lowerneck -1.16605 -2.08528 4.64749
upperneck 2.24031 -2.76597 -4.48371
head 0.766578 -1.38664 -2.23418
rclavicle -5.1684e-015 4.77083e-015
rhumerus -41.4259 3.30355 -79.5564
rradius 45.3366
rwrist -1.16762
rhand -10.6203 -16.5221
rfingers 7.12502
rthumb 15.3863 -45.9295
lclavicle -5.1684e-015 4.77083e-015
lhumerus -43.9839 -4.09095 79.4394
lradius 55.0855
lwrist 3.10154
lhand 2.49662 12.7576
lfingers 7.12502
lthumb 27.9794 40.6923
rfemur -19.1535 -1.78364 21.3146
rtibia 33.5441
rfoot -13.1921 -11.1347
rtoes 1.35648
lfemur 12.241 -9.26289 -13.7225
ltibia 6.67882
lfoot -20.8919 -0.36238
ltoes -10.5725
823
root 36.096 17.4547 0.673278 188.383 81.9175 187.602
lowerback 18.5284 -0.458706 1.103
upperback 8.18112 0.227769 1.33457
thorax -1.60458 0.366064 0.732092
lowerneck -1.18203 -2.09518 4.65445
upperneck 2.26476 -2.77995 -4.46065
head 0.776547 -1.39347 -2.22852
rclavicle -9.93923e-016 -1.66979e-014
rhumerus -41.4485 3.22613 -79.5529
rradius 45.3037
rwrist -1.13434
rhand -10.6326 -16.5288
rfingers 7.12502
rthumb 15.3744 -45.9372
lclavicle -9.93923e-016 -1.66979e-014
lhumerus -44.0301 -4.08982 79.3936
lradius 55.0231
lwrist 3.07821
lhand 2.51467 12.7607
lfingers 7.12502
lthumb 27.9967 40.6926
rfemur -19.145 -1.73355 21.2901
rtibia 33.5269
rfoot -13.1762 -11.2217
rtoes 1.3411
lfemur 12.1897 -9.30045 -13.7365
ltibia 6.74542
lfoot -20.9129 -0.376727
ltoes -10.5372
824
root 36.094 17.4556 0.66785 188.377 81.8789 187.596
lowerback 18.5325 -0.453913 1.09528
upperback 8.17451 0.232524 1.33184
thorax -1.61378 0.368139 0.732613
lowerneck -1.19783 -2.1033 4.65855
upperneck 2.28791 -2.79138 -4.44272
head 0.786173 -1.39908 -2.22399
rclavicle -7.55382e-015 -5.56597e-015
rhumerus -41.4647 3.15699 -79.5448
rradius 45.2743
rwrist -1.09995
rhand -10.6426 -16.5293
rfingers 7.12502
rthumb 15.3648 -45.9384
lclavicle -7.55382e-015 -5.56597e-015
lhumerus -44.0748 -4.08125 79.3505
lradius 54.9882
lwrist 3.07539
lhand 2.53093 12.7689
lfingers 7.12502
lthumb 28.0122 40.6982
rfemur -19.1352 -1.67667 21.27
rtibia 33.5069
rfoot -13.1574 -11.3129
rtoes 1.32778
lfemur 12.1263 -9.33498 -13.7469
ltibia 6.83943
lfoot -20.9477 -0.388178
ltoes -10.5002
825
root 36.0918 17.4565 0.662437 188.42 81.8411 187.639
lowerback 18.5348 -0.448537 1.09266
upperback 8.16847 0.23904 1.33315
thorax -1.62146 0.371161 0.734176
lowerneck -1.20971 -2.11008 4.6647
upperneck 2.30861 -2.80081 -4.43136
head 0.794353 -1.40369 -2.2219
rclavicle 8.54774e-015 1.19271e-014
rhumerus -41.4777 3.09186 -79.5354
rradius 45.2508
rwrist -1.06743
rhand -10.6475 -16.5244
rfingers 7.12502
rthumb 15.3601 -45.9339
lclavicle 8.54774e-015 1.19271e-014
lhumerus -44.1169 -4.07205 79.3084
lradius 54.9774
lwrist 3.08978
lhand 2.54136 12.7769
lfingers 7.12502
lthumb 28.0222 40.7046
rfemur -19.1243 -1.61501 21.2576
rtibia 33.4837
rfoot -13.1364 -11.4077
rtoes 1.31811
lfemur 12.0492 -9.36768 -13.7501
ltibia 6.9611
lfoot -20.9958 -0.396071
ltoes -10.4627
826
root 36.0893 17.4573 0.656935 188.503 81.8121 187.723
lowerback 18.5359 -0.4391 1.09334
upperback 8.16206 0.251365 1.33674
thorax -1.62897 0.377061 0.735156
lowerneck -1.22014 -2.11565 4.67988
upperneck 2.33144 -2.80836 -4.43305
head 0.802792 -1.40737 -2.22574
rclavicle 1.43125e-014 1.15295e-014
rhumerus -41.4895 3.02904 -79.5254
rradius 45.2337
rwrist -1.03682
rhand -10.6488 -16.5145
rfingers 7.12502
rthumb 15.3588 -45.9241
lclavicle 1.43125e-014 1.15295e-014
lhumerus -44.1547 -4.0639 79.2672
lradius 54.9835
lwrist 3.11654
lhand 2.54245 12.7863
lfingers 7.12502
lthumb 28.0233 40.7138
rfemur -19.1151 -1.54999 21.2504
rtibia 33.4579
rfoot -13.1112 -11.4982
rtoes 1.30654
lfemur 11.9625 -9.3907 -13.7497
ltibia 7.10446
lfoot -21.0554 -0.400247
ltoes -10.424
827
root 36.0866 17.4581 0.651386 188.613 81.7866 187.834
lowerback 18.5358 -0.42919 1.09602
upperback 8.15643 0.264729 1.34262
thorax -1.63502 0.383505 0.737212
lowerneck -1.232 -2.11806 4.69609
upperneck 2.35832 -2.81153 -4.43983
head 0.812906 -1.4089 -2.2315
rclavicle -7.55382e-015 -2.22639e-014
rhumerus -41.498 2.97388 -79.5158
rradius 45.2238
rwrist -1.00986
rhand -10.6458 -16.4986
rfingers 7.12502
rthumb 15.3617 -45.908
lclavicle -7.55382e-015 -2.22639e-014
lhumerus -44.1886 -4.05108 79.2248
lradius 55.0064
lwrist 3.15459
lhand 2.53415 12.7952
lfingers 7.12502
lthumb 28.0153 40.7241
rfemur -19.1047 -1.48733 21.2475
rtibia 33.43
rfoot -13.0851 -11.5842
rtoes 1.2952
lfemur 11.8724 -9.40952 -13.7463
ltibia 7.25865
lfoot -21.1212 -0.402525
ltoes -10.3869
828
root 36.0839 17.4588 0.645806 188.726 81.7521 187.95
lowerback 18.5344 -0.423046 1.10298
upperback 8.15105 0.274014 1.35025
thorax -1.64012 0.388031 0.739495
lowerneck -1.24107 -2.11925 4.7134
upperneck 2.3852 -2.81288 -4.45019
head 0.822575 -1.40951 -2.23859
rclavicle 1.15295e-014 -4.13472e-014
rhumerus -41.507 2.92782 -79.5083
rradius 45.2222
rwrist -0.991515
rhand -10.6471 -16.4811
rfingers 7.12502
rthumb 15.3604 -45.8906
lclavicle 1.15295e-014 -4.13472e-014
lhumerus -44.2192 -4.03378 79.1813
lradius 55.041
lwrist 3.19757
lhand 2.51781 12.8003
lfingers 7.12502
lthumb 27.9997 40.7317
rfemur -19.0892 -1.43548 21.2469
rtibia 33.4013
rfoot -13.0609 -11.6692
rtoes 1.28147
lfemur 11.784 -9.4374 -13.7409
ltibia 7.41163
lfoot -21.1866 -0.403647
ltoes -10.3531
829
root 36.0813 17.4595 0.640153 188.823 81.7141 188.053
lowerback 18.5302 -0.418218 1.11178
upperback 8.14627 0.281839 1.3576
thorax -1.64315 0.391897 0.740728
lowerneck -1.24594 -2.12058 4.72785
upperneck 2.41105 -2.8143 -4.45646
head 0.831268 -1.41008 -2.24372
rclavicle -1.82882e-014 1.59028e-015
rhumerus -41.5178 2.89121 -79.5046
rradius 45.2291
rwrist -0.9852
rhand -10.6504 -16.4615
rfingers 7.12502
rthumb 15.3572 -45.8712
lclavicle -1.82882e-014 1.59028e-015
lhumerus -44.2434 -4.01558 79.1364
lradius 55.0808
lwrist 3.24467
lhand 2.49467 12.7992
lfingers 7.12502
lthumb 27.9776 40.7342
rfemur -19.07 -1.3931 21.245
rtibia 33.3726
rfoot -13.0384 -11.7499
rtoes 1.25953
lfemur 11.703 -9.46917 -13.7377
ltibia 7.55366
lfoot -21.2461 -0.404775
ltoes -10.3223
830
root 36.0789 17.4603 0.634372 188.901 81.6684 188.141
lowerback 18.5257 -0.415775 1.126
upperback 8.14195 0.287528 1.36439
thorax -1.64547 0.394883 0.738721
lowerneck -1.24146 -2.12175 4.73912
upperneck 2.43295 -2.8152 -4.4594
head 0.837198 -1.4103 -2.24697
rclavicle 7.15625e-015 1.19271e-015
rhumerus -41.531 2.86014 -79.5035
rradius 45.2429
rwrist -0.986213
rhand -10.6506 -16.4456
rfingers 7.12502
rthumb 15.3571 -45.8553
lclavicle 7.15625e-015 1.19271e-015
lhumerus -44.2631 -4.00094 79.0919
lradius 55.1288
lwrist 3.29582
lhand 2.46338 12.7968
lfingers 7.12502
lthumb 27.9477 40.7367
rfemur -19.0443 -1.36207 21.2415
rtibia 33.345
rfoot -13.0193 -11.8275
rtoes 1.23851
lfemur 11.6352 -9.50921 -13.7363
ltibia 7.67664
lfoot -21.2964 -0.40711
ltoes -10.2961
831
root 36.0765 17.4611 0.628518 188.951 81.6229 188.202
lowerback 18.5206 -0.413868 1.13969
upperback 8.13842 0.292418 1.37007
thorax -1.6466 0.397509 0.736004
lowerneck -1.24516 -2.12535 4.74306
upperneck 2.45735 -2.81981 -4.45068
head 0.845366 -1.41241 -2.24523
rclavicle -1.51076e-014 1.66979e-014
rhumerus -41.5437 2.83696 -79.5057
rradius 45.2636
rwrist -0.99367
rhand -10.6507 -16.4344
rfingers 7.12502
rthumb 15.357 -45.8441
lclavicle -1.51076e-014 1.66979e-014
lhumerus -44.2755 -3.98882 79.0488
lradius 55.1839
lwrist 3.3504
lhand 2.42339 12.7952
lfingers 7.12502
lthumb 27.9094 40.7413
rfemur -19.017 -1.33654 21.2336
rtibia 33.319
rfoot -13.0011 -11.9011
rtoes 1.2082
lfemur 11.5795 -9.54995 -13.7397
ltibia 7.77919
lfoot -21.3357 -0.411577
ltoes -10.2728
832
root 36.0741 17.4618 0.622509 188.952 81.5801 188.217
lowerback 18.5154 -0.411095 1.15121
upperback 8.13484 0.297917 1.37259
thorax -1.6478 0.400425 0.731056
lowerneck -1.24787 -2.12857 4.74789
upperneck 2.48223 -2.82391 -4.44014
head 0.853555 -1.41422 -2.24305
rclavicle 3.33958e-014 7.95139e-015
rhumerus -41.5577 2.82393 -79.5123
rradius 45.2893
rwrist -1.01073
rhand -10.6503 -16.4268
rfingers 7.12502
rthumb 15.3574 -45.8365
lclavicle 3.33958e-014 7.95139e-015
lhumerus -44.2828 -3.98199 79.0066
lradius 55.2449
lwrist 3.40522
lhand 2.37897 12.7875
lfingers 7.12502
lthumb 27.867 40.7405
rfemur -18.988 -1.31831 21.217
rtibia 33.295
rfoot -12.9841 -11.9655
rtoes 1.17986
lfemur 11.5357 -9.58918 -13.7521
ltibia 7.86446
lfoot -21.3665 -0.418278
ltoes -10.247
833
root 36.0716 17.4625 0.616466 188.923 81.5366 188.203
lowerback 18.5106 -0.408254 1.16264
upperback 8.13124 0.303425 1.37319
thorax -1.64916 0.403377 0.724145
lowerneck -1.24825 -2.13197 4.75079
upperneck 2.50445 -2.82834 -4.42432
head 0.860563 -1.41615 -2.23871
rclavicle -2.36554e-014 -6.75868e-015
rhumerus -41.5712 2.81564 -79.5224
rradius 45.3177
rwrist -1.03127
rhand -10.6484 -16.4215
rfingers 7.12502
rthumb 15.3592 -45.831
lclavicle -2.36554e-014 -6.75868e-015
lhumerus -44.2828 -3.98192 78.9658
lradius 55.3114
lwrist 3.46064
lhand 2.32991 12.7767
lfingers 7.12502
lthumb 27.8201 40.7373
rfemur -18.9583 -1.30379 21.1958
rtibia 33.2728
rfoot -12.968 -12.0279
rtoes 1.15007
lfemur 11.4983 -9.62994 -13.7693
ltibia 7.93848
lfoot -21.3905 -0.424979
ltoes -10.2216
834
root 36.069 17.4633 0.610561 188.875 81.4914 188.17
lowerback 18.5078 -0.405769 1.17046
upperback 8.12623 0.307878 1.37437
thorax -1.65308 0.405672 0.720069
lowerneck -1.24971 -2.13473 4.75349
upperneck 2.52632 -2.83194 -4.40942
head 0.867682 -1.41768 -2.23464
rclavicle -4.77083e-015 -5.1684e-015
rhumerus -41.5834 2.81447 -79.5334
rradius 45.3474
rwrist -1.05039
rhand -10.6478 -16.414
rfingers 7.12502
rthumb 15.3598 -45.8235
lclavicle -4.77083e-015 -5.1684e-015
lhumerus -44.2775 -3.98546 78.9279
lradius 55.3818
lwrist 3.51395
lhand 2.28061 12.7686
lfingers 7.12502
lthumb 27.7729 40.7368
rfemur -18.9294 -1.292 21.172
rtibia 33.252
rfoot -12.9521 -12.0886
rtoes 1.12173
lfemur 11.4609 -9.67287 -13.7882
ltibia 8.01029
lfoot -21.4118 -0.43298
ltoes -10.1947
835
root 36.0662 17.4639 0.604773 188.825 81.4551 188.134
lowerback 18.5071 -0.400422 1.17375
upperback 8.12048 0.31526 1.3754
thorax -1.65888 0.409272 0.717822
lowerneck -1.25207 -2.13631 4.75644
upperneck 2.54705 -2.834 -4.39643
head 0.874652 -1.41847 -2.23124
rclavicle -2.26615e-014 -1.03368e-014
rhumerus -41.5929 2.81968 -79.5461
rradius 45.3786
rwrist -1.06748
rhand -10.6435 -16.4091
rfingers 7.12502
rthumb 15.3639 -45.8183
lclavicle -2.26615e-014 -1.03368e-014
lhumerus -44.2667 -3.99186 78.8922
lradius 55.4559
lwrist 3.56254
lhand 2.23162 12.756
lfingers 7.12502
lthumb 27.7261 40.7318
rfemur -18.904 -1.27764 21.1468
rtibia 33.2327
rfoot -12.9342 -12.1433
rtoes 1.09889
lfemur 11.4221 -9.70721 -13.8089
ltibia 8.08652
lfoot -21.4352 -0.440765
ltoes -10.1699
